<svg width="50" height="52" viewBox="0 0 50 52" fill="none" xmlns="http://www.w3.org/2000/svg">
<path d="M44.4444 46.6364V18.1364H5.55556V46.6364H44.4444ZM36.1111 0H41.6667V5.18182H44.4444C45.9179 5.18182 47.3309 5.72776 48.3728 6.69954C49.4147 7.67132 50 8.98933 50 10.3636V46.6364C50 49.5123 47.5278 51.8182 44.4444 51.8182H5.55556C4.08213 51.8182 2.66905 51.2722 1.62718 50.3005C0.585316 49.3287 0 48.0107 0 46.6364V10.3636C0 7.51364 2.5 5.18182 5.55556 5.18182H8.33333V0H13.8889V5.18182H36.1111V0ZM25 41.895L23.3889 40.5218C17.6667 35.6768 13.8889 32.49 13.8889 28.5777C13.8889 25.3909 16.5833 22.8777 20 22.8777C21.9444 22.8777 23.7778 23.7068 25 25.0282C26.2222 23.7068 28.0556 22.8777 30 22.8777C33.4167 22.8777 36.1111 25.3909 36.1111 28.5777C36.1111 32.49 32.3333 35.6768 26.6111 40.5218L25 41.895Z" fill="#C22156"/>
</svg>
