<svg width="39" height="42" viewBox="0 0 39 42" fill="none" xmlns="http://www.w3.org/2000/svg">
<path d="M35.5833 7.10413C34.8927 7.10413 34.2303 7.37849 33.7419 7.86687C33.2535 8.35524 32.9792 9.01762 32.9792 9.70829V19.2708H31.25V4.49996C31.25 3.80929 30.9756 3.14691 30.4873 2.65854C29.9989 2.17016 29.3365 1.89579 28.6458 1.89579C27.9552 1.89579 27.2928 2.17016 26.8044 2.65854C26.316 3.14691 26.0417 3.80929 26.0417 4.49996V19.2708H24.2917V2.77079C24.2917 2.08012 24.0173 1.41774 23.5289 0.929369C23.0405 0.440993 22.3782 0.166626 21.6875 0.166626C20.9968 0.166626 20.3345 0.440993 19.8461 0.929369C19.3577 1.41774 19.0833 2.08012 19.0833 2.77079V19.2708H17.3542V7.10413C17.3542 6.41346 17.0798 5.75108 16.5914 5.2627C16.103 4.77433 15.4407 4.49996 14.75 4.49996C14.0593 4.49996 13.397 4.77433 12.9086 5.2627C12.4202 5.75108 12.1458 6.41346 12.1458 7.10413V27.7916L4.66667 23.625C4.35118 23.4377 3.99185 23.3371 3.625 23.3333C3.1186 23.334 2.6298 23.5192 2.25 23.8541L0 25.9375L13.625 39.75C14.2659 40.411 15.0334 40.9362 15.8817 41.2942C16.73 41.6521 17.6418 41.8355 18.5625 41.8333H31.25C33.0899 41.8333 34.8545 41.1024 36.1556 39.8013C37.4566 38.5003 38.1875 36.7357 38.1875 34.8958V9.70829C38.1875 9.01762 37.9131 8.35524 37.4248 7.86687C36.9364 7.37849 36.274 7.10413 35.5833 7.10413ZM17.3542 27.25C16.9421 27.25 16.5393 27.1278 16.1967 26.8989C15.8541 26.6699 15.5871 26.3446 15.4294 25.9639C15.2717 25.5832 15.2305 25.1643 15.3109 24.7602C15.3912 24.3561 15.5897 23.9848 15.881 23.6935C16.1724 23.4021 16.5436 23.2037 16.9477 23.1233C17.3519 23.0429 17.7707 23.0842 18.1514 23.2419C18.5321 23.3996 18.8575 23.6666 19.0864 24.0092C19.3153 24.3518 19.4375 24.7546 19.4375 25.1666C19.4375 25.7192 19.218 26.2491 18.8273 26.6398C18.4366 27.0305 17.9067 27.25 17.3542 27.25ZM21.5208 33.5C21.1088 33.5 20.706 33.3778 20.3634 33.1489C20.0208 32.9199 19.7538 32.5946 19.5961 32.2139C19.4384 31.8332 19.3971 31.4143 19.4775 31.0102C19.5579 30.6061 19.7563 30.2348 20.0477 29.9435C20.3391 29.6521 20.7103 29.4537 21.1144 29.3733C21.5185 29.2929 21.9374 29.3342 22.3181 29.4919C22.6988 29.6496 23.0241 29.9166 23.2531 30.2592C23.482 30.6018 23.6042 31.0046 23.6042 31.4166C23.6042 31.9692 23.3847 32.4991 22.994 32.8898C22.6033 33.2805 22.0734 33.5 21.5208 33.5ZM31.9375 29.3333C31.5255 29.3333 31.1227 29.2111 30.7801 28.9822C30.4375 28.7533 30.1704 28.4279 30.0127 28.0472C29.8551 27.6665 29.8138 27.2476 29.8942 26.8435C29.9746 26.4394 30.173 26.0682 30.4644 25.7768C30.7557 25.4855 31.1269 25.287 31.5311 25.2067C31.9352 25.1263 32.3541 25.1675 32.7348 25.3252C33.1154 25.4829 33.4408 25.7499 33.6697 26.0925C33.8986 26.4351 34.0208 26.8379 34.0208 27.25C34.0208 27.8025 33.8013 28.3324 33.4106 28.7231C33.0199 29.1138 32.49 29.3333 31.9375 29.3333ZM29.8542 35.5833C29.4421 35.5833 29.0393 35.4611 28.6967 35.2322C28.3541 35.0033 28.0871 34.6779 27.9294 34.2972C27.7717 33.9165 27.7305 33.4976 27.8109 33.0935C27.8912 32.6894 28.0897 32.3182 28.381 32.0268C28.6724 31.7355 29.0436 31.537 29.4477 31.4567C29.8519 31.3763 30.2707 31.4175 30.6514 31.5752C31.0321 31.7329 31.3575 31.9999 31.5864 32.3425C31.8153 32.6851 31.9375 33.0879 31.9375 33.5C31.9375 34.0525 31.718 34.5824 31.3273 34.9731C30.9366 35.3638 30.4067 35.5833 29.8542 35.5833ZM25.6875 27.25C25.2755 27.25 24.8727 27.1278 24.5301 26.8989C24.1875 26.6699 23.9204 26.3446 23.7628 25.9639C23.6051 25.5832 23.5638 25.1643 23.6442 24.7602C23.7246 24.3561 23.923 23.9848 24.2144 23.6935C24.5057 23.4021 24.8769 23.2037 25.2811 23.1233C25.6852 23.0429 26.1041 23.0842 26.4848 23.2419C26.8654 23.3996 27.1908 23.6666 27.4197 24.0092C27.6486 24.3518 27.7708 24.7546 27.7708 25.1666C27.7708 25.7192 27.5513 26.2491 27.1606 26.6398C26.7699 27.0305 26.24 27.25 25.6875 27.25Z" fill="#C22156"/>
</svg>
