<svg width="50" height="48" viewBox="0 0 50 48" fill="none" xmlns="http://www.w3.org/2000/svg">
<path d="M47.4519 0.216865C46.7497 -0.0270091 45.9926 -0.0660987 45.269 0.104159C44.5454 0.274417 43.8852 0.646998 43.3654 1.1784L39.3029 5.2409C35.0215 2.5394 30.0625 1.10566 25 1.10566C19.9375 1.10566 14.9785 2.5394 10.6971 5.2409L6.63462 1.1784C6.11482 0.646998 5.45458 0.274417 4.73099 0.104159C4.00739 -0.0660987 3.25029 -0.0270091 2.54808 0.216865C1.80253 0.480457 1.15709 0.968807 0.700724 1.61461C0.244359 2.26041 -0.000463624 3.03186 6.59131e-07 3.82263V24.1832C6.59131e-07 35.9861 9.63942 45.7217 22.0192 47.0919C22.1533 47.1053 22.2888 47.0905 22.4168 47.0482C22.5448 47.006 22.6625 46.9373 22.7622 46.8466C22.8619 46.756 22.9415 46.6453 22.9957 46.5219C23.0499 46.3985 23.0776 46.2651 23.0769 46.1303V38.438L19.8558 35.2169C19.4926 34.8589 19.2802 34.3755 19.2623 33.8658C19.2445 33.3562 19.4224 32.859 19.7596 32.4765C19.9374 32.2909 20.1502 32.1423 20.3857 32.0393C20.6212 31.9364 20.8748 31.8811 21.1318 31.8766C21.3888 31.8721 21.6441 31.9186 21.8831 32.0133C22.122 32.108 22.3399 32.2491 22.524 32.4284L25 34.9284L27.476 32.4284C27.6601 32.2491 27.8779 32.108 28.1169 32.0133C28.3559 31.9186 28.6112 31.8721 28.8682 31.8766C29.1252 31.8811 29.3787 31.9364 29.6143 32.0393C29.8498 32.1423 30.0626 32.2909 30.2404 32.4765C30.5776 32.859 30.7555 33.3562 30.7377 33.8658C30.7198 34.3755 30.5074 34.8589 30.1442 35.2169L26.9231 38.438V46.1303C26.9224 46.2651 26.9501 46.3985 27.0043 46.5219C27.0585 46.6453 27.1381 46.756 27.2378 46.8466C27.3375 46.9373 27.4552 47.006 27.5832 47.0482C27.7112 47.0905 27.8467 47.1053 27.9808 47.0919C40.3606 45.7217 50 35.9861 50 24.1832V3.82263C50.0005 3.03186 49.7556 2.26041 49.2993 1.61461C48.8429 0.968807 48.1975 0.480457 47.4519 0.216865ZM14.4231 28.0294C13.8526 28.0294 13.2948 27.8602 12.8205 27.5432C12.3461 27.2263 11.9764 26.7757 11.758 26.2486C11.5397 25.7215 11.4826 25.1416 11.5939 24.582C11.7052 24.0224 11.9799 23.5084 12.3833 23.105C12.7868 22.7016 13.3008 22.4269 13.8603 22.3156C14.4199 22.2043 14.9999 22.2614 15.527 22.4797C16.0541 22.698 16.5046 23.0678 16.8215 23.5421C17.1385 24.0165 17.3077 24.5742 17.3077 25.1447C17.3077 25.9098 17.0038 26.6435 16.4628 27.1845C15.9218 27.7254 15.1881 28.0294 14.4231 28.0294ZM19.2308 12.6447C19.2308 13.1548 19.0282 13.6439 18.6675 14.0046C18.3069 14.3652 17.8177 14.5678 17.3077 14.5678C16.7977 14.5678 16.3085 14.3652 15.9479 14.0046C15.5872 13.6439 15.3846 13.1548 15.3846 12.6447V8.07744C15.3846 7.56741 15.5872 7.07827 15.9479 6.71762C16.3085 6.35698 16.7977 6.15437 17.3077 6.15437C17.8177 6.15437 18.3069 6.35698 18.6675 6.71762C19.0282 7.07827 19.2308 7.56741 19.2308 8.07744V12.6447ZM26.9231 12.6447C26.9231 13.1548 26.7205 13.6439 26.3598 14.0046C25.9992 14.3652 25.51 14.5678 25 14.5678C24.49 14.5678 24.0008 14.3652 23.6402 14.0046C23.2795 13.6439 23.0769 13.1548 23.0769 12.6447V6.87552C23.0769 6.36549 23.2795 5.87635 23.6402 5.5157C24.0008 5.15505 24.49 4.95244 25 4.95244C25.51 4.95244 25.9992 5.15505 26.3598 5.5157C26.7205 5.87635 26.9231 6.36549 26.9231 6.87552V12.6447ZM30.7692 12.6447V8.07744C30.7692 7.56741 30.9718 7.07827 31.3325 6.71762C31.6931 6.35698 32.1823 6.15437 32.6923 6.15437C33.2023 6.15437 33.6915 6.35698 34.0521 6.71762C34.4128 7.07827 34.6154 7.56741 34.6154 8.07744V12.6447C34.6154 13.1548 34.4128 13.6439 34.0521 14.0046C33.6915 14.3652 33.2023 14.5678 32.6923 14.5678C32.1823 14.5678 31.6931 14.3652 31.3325 14.0046C30.9718 13.6439 30.7692 13.1548 30.7692 12.6447ZM35.5769 28.0294C35.0064 28.0294 34.4487 27.8602 33.9743 27.5432C33.4999 27.2263 33.1302 26.7757 32.9119 26.2486C32.6936 25.7215 32.6364 25.1416 32.7477 24.582C32.859 24.0224 33.1338 23.5084 33.5372 23.105C33.9406 22.7016 34.4546 22.4269 35.0142 22.3156C35.5737 22.2043 36.1537 22.2614 36.6808 22.4797C37.2079 22.698 37.6584 23.0678 37.9754 23.5421C38.2924 24.0165 38.4615 24.5742 38.4615 25.1447C38.4615 25.9098 38.1576 26.6435 37.6167 27.1845C37.0757 27.7254 36.342 28.0294 35.5769 28.0294Z" fill="#C22156"/>
</svg>
