<svg width="50" height="49" viewBox="0 0 50 49" fill="none" xmlns="http://www.w3.org/2000/svg">
<path d="M4.43557 9.65704C11.8085 -0.215894 27.0809 -3.08752 37.9497 3.70706C48.683 10.4134 52.6303 23.3143 48.2316 35.4159C44.0812 46.8444 33.1448 51.3699 25.2628 45.6216C22.3111 43.4686 21.165 40.7684 20.6133 36.384L20.3475 33.8956L20.2347 32.8922C19.9262 30.5374 19.4547 29.4836 18.4667 28.9289C17.125 28.1776 16.2297 28.16 14.4667 28.8457L13.5865 29.2138L13.1376 29.4105C10.5947 30.5198 8.90445 30.9106 6.76531 30.4593L6.26375 30.3408L5.85247 30.2223C-1.14176 28.044 -2.17748 18.5064 4.43557 9.65704ZM36.8563 21.562C36.9628 21.9618 37.1467 22.3366 37.3973 22.665C37.6479 22.9933 37.9604 23.2689 38.3169 23.4758C38.6734 23.6828 39.067 23.8171 39.4751 23.8711C39.8833 23.9252 40.2981 23.8979 40.6957 23.7908C41.0934 23.6837 41.4662 23.4989 41.7928 23.2469C42.1194 22.995 42.3935 22.6808 42.5993 22.3224C42.8052 21.964 42.9388 21.5683 42.9926 21.1579C43.0463 20.7476 43.0191 20.3306 42.9126 19.9308C42.6974 19.1234 42.1721 18.435 41.452 18.0171C40.732 17.5991 39.8763 17.4858 39.0732 17.7021C38.2701 17.9184 37.5853 18.4466 37.1696 19.1705C36.7538 19.8944 36.6411 20.7546 36.8563 21.562ZM38.0976 30.3559C38.1957 30.7648 38.3742 31.1497 38.6225 31.4882C38.8708 31.8266 39.1841 32.1116 39.5437 32.3265C39.9033 32.5413 40.3021 32.6816 40.7165 32.7391C41.1309 32.7966 41.5525 32.7702 41.9566 32.6613C42.3607 32.5524 42.739 32.3633 43.0692 32.1052C43.3995 31.847 43.675 31.5251 43.8795 31.1582C44.0841 30.7913 44.2135 30.387 44.2602 29.9691C44.3069 29.5512 44.2699 29.128 44.1515 28.7247C43.9199 27.9363 43.3911 27.2701 42.6778 26.8682C41.9646 26.4663 41.1233 26.3604 40.3335 26.5732C39.5438 26.786 38.8679 27.3007 38.4502 28.0073C38.0325 28.714 37.906 29.5568 38.0976 30.3559ZM31.8934 13.9909C32.1085 14.7983 32.6339 15.4868 33.354 15.9047C34.074 16.3227 34.9297 16.436 35.7328 16.2197C36.5359 16.0034 37.2207 15.4752 37.6364 14.7513C38.0522 14.0274 38.1649 13.1671 37.9497 12.3597C37.8432 11.96 37.6593 11.5852 37.4087 11.2568C37.1581 10.9284 36.8456 10.6529 36.4891 10.446C35.7691 10.028 34.9134 9.91471 34.1103 10.131C33.3071 10.3473 32.6224 10.8755 32.2066 11.5994C31.7909 12.3233 31.6782 13.1835 31.8934 13.9909ZM31.8232 36.6765C31.9297 37.0763 32.1135 37.4511 32.3641 37.7794C32.6147 38.1078 32.9272 38.3833 33.2837 38.5903C33.6403 38.7972 34.0338 38.9316 34.442 38.9856C34.8502 39.0396 35.2649 39.0123 35.6626 38.9052C36.0602 38.7981 36.433 38.6133 36.7597 38.3614C37.0863 38.1094 37.3603 37.7953 37.5662 37.4368C37.7721 37.0784 37.9057 36.6827 37.9594 36.2724C38.0132 35.8621 37.986 35.4451 37.8795 35.0453C37.6643 34.2379 37.1389 33.5495 36.4189 33.1315C35.6989 32.7136 34.8432 32.6003 34.04 32.8166C33.2369 33.0329 32.5522 33.5611 32.1364 34.285C31.7207 35.0088 31.608 35.8691 31.8232 36.6765ZM23.0534 11.5404C23.1569 11.9433 23.3388 12.3216 23.5885 12.6534C23.8383 12.9853 24.1509 13.2642 24.5084 13.4739C24.8659 13.6837 25.2611 13.8202 25.6714 13.8756C26.0816 13.9309 26.4987 13.9041 26.8986 13.7965C27.2984 13.689 27.6731 13.5029 28.0011 13.249C28.329 12.9951 28.6037 12.6785 28.8093 12.3173C29.0149 11.9561 29.1473 11.5576 29.1988 11.1447C29.2504 10.7318 29.2201 10.3127 29.1097 9.91168C28.8893 9.11063 28.3629 8.42958 27.6454 8.01679C26.9278 7.604 26.0771 7.4929 25.2785 7.70767C24.4798 7.92245 23.7979 8.44571 23.3812 9.16354C22.9644 9.88136 22.8466 10.7356 23.0534 11.5404Z" fill="#C22156"/>
</svg>
