<svg width="50" height="63" viewBox="0 0 50 63" fill="none" xmlns="http://www.w3.org/2000/svg">
<path d="M33.0938 1.84375C31.9062 0.65625 30.3125 0 28.6562 0H6.25C2.8125 0 0 2.8125 0 6.25V56.25C0 59.6875 2.78125 62.5 6.21875 62.5H43.75C47.1875 62.5 50 59.6875 50 56.25V21.3438C50 19.6875 49.3438 18.0938 48.1562 16.9375L33.0938 1.84375ZM34.375 50H15.625C13.9062 50 12.5 48.5938 12.5 46.875C12.5 45.1562 13.9062 43.75 15.625 43.75H34.375C36.0938 43.75 37.5 45.1562 37.5 46.875C37.5 48.5938 36.0938 50 34.375 50ZM34.375 37.5H15.625C13.9062 37.5 12.5 36.0938 12.5 34.375C12.5 32.6562 13.9062 31.25 15.625 31.25H34.375C36.0938 31.25 37.5 32.6562 37.5 34.375C37.5 36.0938 36.0938 37.5 34.375 37.5ZM28.125 18.75V4.6875L45.3125 21.875H31.25C29.5312 21.875 28.125 20.4688 28.125 18.75Z" fill="#C22156"/>
</svg>
