<svg width="50" height="50" viewBox="0 0 50 50" fill="none" xmlns="http://www.w3.org/2000/svg">
<path d="M9.7422 10.5906C6.41407 14.2016 4.68751 19.2625 4.68751 24.9969V25.0781C4.14845 24.9693 3.59254 24.9749 3.05581 25.0947C2.51909 25.2145 2.01352 25.4457 1.57188 25.7734C1.56562 25.5157 1.5625 25.2578 1.56251 25C1.56251 18.6547 3.47813 12.7797 7.4422 8.475C11.4266 4.14687 17.3359 1.5625 25 1.5625C32.6625 1.5625 38.5719 4.14687 42.5547 8.47344C46.5188 12.7781 48.4359 18.6531 48.4359 24.9984C48.4359 25.2328 48.4328 25.4672 48.4281 25.7C47.9798 25.3868 47.4705 25.1716 46.9333 25.0684C46.3962 24.9653 45.8434 24.9766 45.3109 25.1016V24.9984C45.3109 19.2641 43.5828 14.2016 40.2563 10.5906C36.9484 7 31.9219 4.6875 25 4.6875C18.0781 4.6875 13.05 7 9.74376 10.5906H9.7422ZM3.90626 26.5625C4.21428 26.5617 4.51942 26.6217 4.80415 26.7392C5.08888 26.8567 5.34758 27.0293 5.56538 27.2471C5.78318 27.4649 5.95579 27.7236 6.07328 28.0084C6.19077 28.2931 6.25083 28.5982 6.25001 28.9062V29.9062C6.24979 30.3195 6.35166 30.7265 6.54656 31.0909C6.74146 31.4554 7.02335 31.766 7.3672 31.9953L14.4188 36.6953C15.1586 37.1872 15.7854 37.8306 16.2578 38.5831C16.7301 39.3355 17.0372 40.1797 17.1586 41.0598C17.28 41.9398 17.2131 42.8356 16.9622 43.6879C16.7112 44.5401 16.2821 45.3293 15.7031 46.0031C15.1137 46.6904 14.3827 47.242 13.5601 47.6202C12.7375 47.9984 11.8429 48.1942 10.9375 48.1942C10.0321 48.1942 9.13749 47.9984 8.31491 47.6202C7.49232 47.242 6.76127 46.6904 6.17188 46.0031L3.71876 43.1391C2.32734 41.5166 1.56248 39.4498 1.56251 37.3125V28.9062C1.56168 28.5982 1.62174 28.2931 1.73924 28.0084C1.85673 27.7236 2.02934 27.4649 2.24714 27.2471C2.46494 27.0293 2.72364 26.8567 3.00837 26.7392C3.2931 26.6217 3.59824 26.5617 3.90626 26.5625ZM17.4375 46.3031C17.8184 45.739 18.1241 45.1276 18.3469 44.4844C20.3313 45.0187 22.5453 45.3094 24.9984 45.3094C27.4906 45.3094 29.7375 45.0094 31.7453 44.4578C32.0968 45.487 32.6599 46.4313 33.3984 47.2297C30.8906 48.0141 28.0859 48.4328 24.9984 48.4328C21.9438 48.4328 19.1672 48.0234 16.6797 47.2547C16.9563 46.9573 17.2092 46.6386 17.4359 46.3016L17.4375 46.3031ZM33.9375 45.3953C33.3498 44.5153 32.996 43.5 32.9094 42.4453C32.8144 41.3263 33.0217 40.2024 33.5096 39.1909C33.9974 38.1795 34.748 37.3176 35.6828 36.6953L42.7359 31.9953C43.4328 31.5297 43.8531 30.7453 43.8531 29.9078V28.9062C43.8531 28.2846 44.1001 27.6885 44.5396 27.249C44.9791 26.8094 45.5753 26.5625 46.1969 26.5625C46.8185 26.5625 47.4146 26.8094 47.8542 27.249C48.2937 27.6885 48.5406 28.2846 48.5406 28.9062V37.3141C48.54 39.4508 47.7752 41.5169 46.3844 43.1391L43.9313 46.0031C43.3 46.7394 42.5067 47.3193 41.6137 47.6976C40.7206 48.0758 39.7521 48.242 38.7841 48.1831C37.816 48.1242 36.8748 47.8419 36.0342 47.3582C35.1936 46.8745 34.4765 46.2026 33.9391 45.3953H33.9375Z" fill="#C22156"/>
<path d="M16.4062 26.5625C18.2711 26.5625 20.0595 25.8217 21.3781 24.5031C22.6967 23.1845 23.4375 21.3961 23.4375 19.5312C23.4375 17.6664 22.6967 15.878 21.3781 14.5594C20.0595 13.2408 18.2711 12.5 16.4062 12.5C14.5414 12.5 12.753 13.2408 11.4344 14.5594C10.1158 15.878 9.375 17.6664 9.375 19.5312C9.375 21.3961 10.1158 23.1845 11.4344 24.5031C12.753 25.8217 14.5414 26.5625 16.4062 26.5625ZM33.5938 26.5625C35.4586 26.5625 37.247 25.8217 38.5656 24.5031C39.8842 23.1845 40.625 21.3961 40.625 19.5312C40.625 17.6664 39.8842 15.878 38.5656 14.5594C37.247 13.2408 35.4586 12.5 33.5938 12.5C31.7289 12.5 29.9405 13.2408 28.6219 14.5594C27.3033 15.878 26.5625 17.6664 26.5625 19.5312C26.5625 21.3961 27.3033 23.1845 28.6219 24.5031C29.9405 25.8217 31.7289 26.5625 33.5938 26.5625ZM25 26.5625C23.7568 26.5625 22.5645 27.0564 21.6854 27.9354C20.8064 28.8145 20.3125 30.0068 20.3125 31.25V35.9375C20.3125 37.1807 20.8064 38.373 21.6854 39.2521C22.5645 40.1311 23.7568 40.625 25 40.625C26.2432 40.625 27.4355 40.1311 28.3146 39.2521C29.1936 38.373 29.6875 37.1807 29.6875 35.9375V31.25C29.6875 30.0068 29.1936 28.8145 28.3146 27.9354C27.4355 27.0564 26.2432 26.5625 25 26.5625Z" fill="#C22156"/>
</svg>
