<svg width="50" height="50" viewBox="0 0 50 50" fill="none" xmlns="http://www.w3.org/2000/svg">
<path d="M2.44806 22.1408C1.67232 22.9107 1.05662 23.8265 0.636468 24.8355C0.216312 25.8445 0 26.9267 0 28.0196C0 29.1126 0.216312 30.1948 0.636468 31.2037C1.05662 32.2127 1.67232 33.1286 2.44806 33.8985L16.1807 47.5645C17.7517 49.1237 19.8754 49.9986 22.0888 49.9986C24.3021 49.9986 26.4258 49.1237 27.9968 47.5645L47.4542 28.203C49.0051 26.6612 49.8842 24.5692 49.8999 22.3824L49.9999 8.37477C50.0054 7.2724 49.7922 6.17989 49.3725 5.16052C48.9528 4.14115 48.335 3.21519 47.555 2.43627C46.7749 1.65734 45.848 1.04095 44.828 0.622784C43.808 0.20462 42.7152 -0.00700265 41.6128 0.000176733L28.0718 0.058507C25.8698 0.0656983 23.7593 0.939853 22.1971 2.49172L2.44806 22.1408V22.1408ZM37.5005 16.666C36.3955 16.666 35.3357 16.2271 34.5544 15.4457C33.773 14.6643 33.334 13.6046 33.334 12.4996C33.334 11.3945 33.773 10.3348 34.5544 9.55343C35.3357 8.77207 36.3955 8.3331 37.5005 8.3331C38.6055 8.3331 39.6653 8.77207 40.4466 9.55343C41.228 10.3348 41.667 11.3945 41.667 12.4996C41.667 13.6046 41.228 14.6643 40.4466 15.4457C39.6653 16.2271 38.6055 16.666 37.5005 16.666Z" fill="#C22156"/>
</svg>
