<svg width="50" height="50" viewBox="0 0 50 50" fill="none" xmlns="http://www.w3.org/2000/svg">
<path d="M10.0556 21.6389C14.0556 29.5 20.5 35.9444 28.3611 39.9444L34.4722 33.8333C35.25 33.0556 36.3333 32.8333 37.3056 33.1389C40.4167 34.1667 43.75 34.7222 47.2222 34.7222C47.9589 34.7222 48.6655 35.0149 49.1864 35.5358C49.7073 36.0567 50 36.7633 50 37.5V47.2222C50 47.9589 49.7073 48.6655 49.1864 49.1864C48.6655 49.7073 47.9589 50 47.2222 50C34.6981 50 22.687 45.0248 13.8311 36.1689C4.97518 27.313 0 15.3019 0 2.77778C0 2.04107 0.292658 1.33453 0.813592 0.813592C1.33453 0.292658 2.04107 0 2.77778 0H12.5C13.2367 0 13.9432 0.292658 14.4642 0.813592C14.9851 1.33453 15.2778 2.04107 15.2778 2.77778C15.2778 6.25 15.8333 9.58333 16.8611 12.6944C17.1667 13.6667 16.9444 14.75 16.1667 15.5278L10.0556 21.6389Z" fill="#C22156"/>
</svg>
