<svg width="50" height="68" viewBox="0 0 50 68" fill="none" xmlns="http://www.w3.org/2000/svg">
<path d="M46.5125 0H36.0499C35.125 0 34.2379 0.367434 33.5839 1.02147C32.9298 1.67551 32.5624 2.56257 32.5624 3.48752C32.5624 4.41247 32.9298 5.29953 33.5839 5.95357C34.2379 6.60761 35.125 6.97504 36.0499 6.97504H38.0843L33.7249 11.3635C30.074 8.5102 25.571 6.96486 20.9373 6.97504C15.6884 6.97199 10.6301 8.9417 6.7655 12.4935C2.90088 16.0454 0.512253 20.9199 0.0733307 26.1504C-0.365592 31.3809 1.17725 36.5853 4.39587 40.7315C7.6145 44.8777 12.2738 47.6629 17.4498 48.5347V52.3128H11.6373C10.7123 52.3128 9.82525 52.6803 9.17121 53.3343C8.51718 53.9883 8.14974 54.8754 8.14974 55.8003C8.14974 56.7253 8.51718 57.6124 9.17121 58.2664C9.82525 58.9204 10.7123 59.2879 11.6373 59.2879H17.4498V63.9379C17.4498 64.8628 17.8172 65.7499 18.4713 66.4039C19.1253 67.058 20.0124 67.4254 20.9373 67.4254C21.8623 67.4254 22.7493 67.058 23.4034 66.4039C24.0574 65.7499 24.4248 64.8628 24.4248 63.9379V59.2879H30.2374C31.1623 59.2879 32.0494 58.9204 32.7034 58.2664C33.3575 57.6124 33.7249 56.7253 33.7249 55.8003C33.7249 54.8754 33.3575 53.9883 32.7034 53.3343C32.0494 52.6803 31.1623 52.3128 30.2374 52.3128H24.4248V48.5347C27.8476 47.9551 31.0723 46.533 33.8086 44.3967C36.5448 42.2603 38.7065 39.4768 40.099 36.2968C41.4915 33.1169 42.071 29.6405 41.7852 26.1808C41.4995 22.7211 40.3575 19.3869 38.4621 16.4785L43.025 11.9157V13.9501C43.025 14.875 43.3924 15.7621 44.0464 16.4161C44.7005 17.0702 45.5875 17.4376 46.5125 17.4376C47.4374 17.4376 48.3245 17.0702 48.9785 16.4161C49.6326 15.7621 50 14.875 50 13.9501V3.48752C50 2.56257 49.6326 1.67551 48.9785 1.02147C48.3245 0.367434 47.4374 0 46.5125 0ZM20.9373 41.8503C18.1783 41.8503 15.4811 41.0321 13.1871 39.4992C10.893 37.9664 9.10497 35.7877 8.04912 33.2386C6.99328 30.6896 6.71702 27.8847 7.25528 25.1786C7.79355 22.4726 9.12217 19.9869 11.0731 18.036C13.0241 16.085 15.5097 14.7564 18.2158 14.2181C20.9218 13.6799 23.7267 13.9561 26.2758 15.012C28.8248 16.0678 31.0035 17.8558 32.5364 20.1499C34.0692 22.444 34.8874 25.1411 34.8874 27.9002C34.8874 31.6 33.4177 35.1482 30.8015 37.7644C28.1854 40.3805 24.6371 41.8503 20.9373 41.8503Z" fill="#C22156"/>
</svg>
