<svg width="50" height="37" viewBox="0 0 50 37" fill="none" xmlns="http://www.w3.org/2000/svg">
<path d="M38.6364 0C34.75 0 32.3864 0.758272 31.0227 1.40165C29.2727 0.528493 27.2727 0 25 0C22.7273 0 20.7273 0.528493 18.9773 1.40165C17.6136 0.758272 15.25 0 11.3636 0C4.54545 0 0 18.3824 0 22.9779C0 24.8851 3 26.6314 7.13636 27.3438C8.59091 32.4908 15.4545 36.42 23.8636 36.7647V26.9301C22.5227 26.08 20.4545 24.5404 20.4545 22.9779C20.4545 20.6801 25 20.6801 25 20.6801C25 20.6801 29.5455 20.6801 29.5455 22.9779C29.5455 24.5404 27.4773 26.08 26.1364 26.9301V36.7647C34.5455 36.42 41.4091 32.4908 42.8636 27.3438C47 26.6314 50 24.8851 50 22.9779C50 18.3824 45.4545 0 38.6364 0ZM7.15909 22.6792C6.02273 22.4035 5.13636 22.0818 4.54545 21.829C5.11364 15.4642 9.54545 5.51471 11.4773 4.59559C12.7045 4.59559 13.6364 4.73346 14.4773 4.84835C9.70455 10.1562 7.81818 18.4743 7.15909 22.6792ZM18.1818 18.3824C17.5791 18.3824 17.001 18.1403 16.5748 17.7093C16.1485 17.2784 15.9091 16.694 15.9091 16.0846C15.9091 14.8437 16.9318 13.7868 18.1818 13.7868C18.7846 13.7868 19.3627 14.0289 19.7889 14.4598C20.2151 14.8907 20.4545 15.4751 20.4545 16.0846C20.4545 17.3713 19.4318 18.3824 18.1818 18.3824ZM31.8182 18.3824C31.2154 18.3824 30.6373 18.1403 30.2111 17.7093C29.7849 17.2784 29.5455 16.694 29.5455 16.0846C29.5455 14.8437 30.5682 13.7868 31.8182 13.7868C32.4209 13.7868 32.999 14.0289 33.4252 14.4598C33.8515 14.8907 34.0909 15.4751 34.0909 16.0846C34.0909 17.3713 33.0682 18.3824 31.8182 18.3824ZM42.8409 22.6792C42.1818 18.4743 40.2955 10.1562 35.5227 4.84835C36.3636 4.73346 37.2955 4.59559 38.5227 4.59559C40.4545 5.51471 44.8864 15.4642 45.4545 21.829C44.8864 22.0818 44 22.4035 42.8409 22.6792Z" fill="#C22156"/>
</svg>
